<mxfile host="65bd71144e">
    <diagram id="0EtHq9R6iQl5TgzgJTzp" name="第 1 页">
        <mxGraphModel dx="587" dy="244" grid="1" gridSize="10" guides="1" tooltips="1" connect="1" arrows="1" fold="1" page="1" pageScale="1" pageWidth="827" pageHeight="1169" math="0" shadow="0">
            <root>
                <mxCell id="0"/>
                <mxCell id="1" parent="0"/>
                <mxCell id="8" style="edgeStyle=none;html=1;exitX=1;exitY=0.5;exitDx=0;exitDy=0;entryX=0.912;entryY=1.038;entryDx=0;entryDy=0;entryPerimeter=0;" parent="1" source="2" edge="1">
                    <mxGeometry relative="1" as="geometry">
                        <mxPoint x="244.72000000000003" y="61.139999999999986" as="targetPoint"/>
                    </mxGeometry>
                </mxCell>
                <mxCell id="2" value="病人" style="rounded=0;whiteSpace=wrap;html=1;" parent="1" vertex="1">
                    <mxGeometry x="80" y="40" width="100" height="40" as="geometry"/>
                </mxCell>
                <mxCell id="9" style="edgeStyle=none;html=1;exitX=1;exitY=0;exitDx=0;exitDy=0;entryX=0.029;entryY=0.667;entryDx=0;entryDy=0;entryPerimeter=0;" parent="1" source="3" target="7" edge="1">
                    <mxGeometry relative="1" as="geometry">
                        <mxPoint x="230" y="100" as="targetPoint"/>
                        <Array as="points">
                            <mxPoint x="210" y="120"/>
                        </Array>
                    </mxGeometry>
                </mxCell>
                <mxCell id="3" value="医生" style="rounded=0;whiteSpace=wrap;html=1;" parent="1" vertex="1">
                    <mxGeometry x="80" y="120" width="100" height="40" as="geometry"/>
                </mxCell>
                <mxCell id="4" value="叫号系统" style="rounded=0;whiteSpace=wrap;html=1;" parent="1" vertex="1">
                    <mxGeometry x="440" y="80" width="100" height="40" as="geometry"/>
                </mxCell>
                <mxCell id="10" style="edgeStyle=none;html=1;exitX=1;exitY=0.5;exitDx=0;exitDy=0;entryX=0;entryY=0.5;entryDx=0;entryDy=0;" parent="1" source="7" target="4" edge="1">
                    <mxGeometry relative="1" as="geometry"/>
                </mxCell>
                <mxCell id="7" value="医疗排班系统" style="ellipse;whiteSpace=wrap;html=1;aspect=fixed;" parent="1" vertex="1">
                    <mxGeometry x="230" y="40" width="120" height="120" as="geometry"/>
                </mxCell>
                <mxCell id="19" value="" style="endArrow=classic;html=1;fontSize=8;entryX=1;entryY=0.75;entryDx=0;entryDy=0;exitX=0.083;exitY=0.25;exitDx=0;exitDy=0;exitPerimeter=0;" parent="1" source="7" target="2" edge="1">
                    <mxGeometry width="50" height="50" relative="1" as="geometry">
                        <mxPoint x="240" y="120" as="sourcePoint"/>
                        <mxPoint x="290" y="70" as="targetPoint"/>
                    </mxGeometry>
                </mxCell>
                <mxCell id="22" value="" style="endArrow=classic;html=1;fontSize=8;exitX=0.072;exitY=0.757;exitDx=0;exitDy=0;exitPerimeter=0;entryX=0.988;entryY=0.275;entryDx=0;entryDy=0;entryPerimeter=0;" parent="1" source="7" target="3" edge="1">
                    <mxGeometry width="50" height="50" relative="1" as="geometry">
                        <mxPoint x="200" y="150" as="sourcePoint"/>
                        <mxPoint x="220" y="131" as="targetPoint"/>
                    </mxGeometry>
                </mxCell>
                <mxCell id="24" value="&lt;font style=&quot;font-size: 13px;&quot;&gt;顶层&lt;/font&gt;" style="text;html=1;align=center;verticalAlign=middle;resizable=0;points=[];autosize=1;strokeColor=none;fillColor=none;fontSize=8;" parent="1" vertex="1">
                    <mxGeometry x="5" y="10" width="50" height="30" as="geometry"/>
                </mxCell>
                <mxCell id="25" value="&lt;font style=&quot;font-size: 13px;&quot;&gt;0层&lt;/font&gt;" style="text;html=1;align=center;verticalAlign=middle;resizable=0;points=[];autosize=1;strokeColor=none;fillColor=none;fontSize=8;" parent="1" vertex="1">
                    <mxGeometry x="10" y="170" width="40" height="30" as="geometry"/>
                </mxCell>
                <mxCell id="26" value="&lt;font style=&quot;font-size: 7px;&quot;&gt;排班信息&lt;/font&gt;" style="text;html=1;align=center;verticalAlign=middle;resizable=0;points=[];autosize=1;strokeColor=none;fillColor=none;fontSize=13;" parent="1" vertex="1">
                    <mxGeometry x="365" y="95" width="50" height="30" as="geometry"/>
                </mxCell>
                <mxCell id="27" value="&lt;font style=&quot;font-size: 6px;&quot;&gt;个人信息，诊疗单&lt;/font&gt;" style="text;html=1;align=center;verticalAlign=middle;resizable=0;points=[];autosize=1;strokeColor=none;fillColor=none;fontSize=13;" parent="1" vertex="1">
                    <mxGeometry x="170" y="95" width="70" height="30" as="geometry"/>
                </mxCell>
                <mxCell id="28" value="诊疗单，排班信息" style="text;html=1;align=center;verticalAlign=middle;resizable=0;points=[];autosize=1;strokeColor=none;fillColor=none;fontSize=6;" parent="1" vertex="1">
                    <mxGeometry x="180" y="130" width="70" height="20" as="geometry"/>
                </mxCell>
                <mxCell id="29" value="个人信息，报到信息" style="text;html=1;align=center;verticalAlign=middle;resizable=0;points=[];autosize=1;strokeColor=none;fillColor=none;fontSize=6;" parent="1" vertex="1">
                    <mxGeometry x="175" y="40" width="80" height="20" as="geometry"/>
                </mxCell>
                <mxCell id="30" value="诊疗单" style="text;html=1;align=center;verticalAlign=middle;resizable=0;points=[];autosize=1;strokeColor=none;fillColor=none;fontSize=6;" parent="1" vertex="1">
                    <mxGeometry x="180" y="70" width="40" height="20" as="geometry"/>
                </mxCell>
                <mxCell id="31" value="病人" style="rounded=0;whiteSpace=wrap;html=1;" parent="1" vertex="1">
                    <mxGeometry x="60" y="210" width="100" height="40" as="geometry"/>
                </mxCell>
                <mxCell id="61" style="edgeStyle=none;html=1;entryX=0;entryY=0.753;entryDx=0;entryDy=0;entryPerimeter=0;fontSize=8;startArrow=none;" edge="1" parent="1" source="63" target="36">
                    <mxGeometry relative="1" as="geometry"/>
                </mxCell>
                <mxCell id="32" value="医生" style="rounded=0;whiteSpace=wrap;html=1;" parent="1" vertex="1">
                    <mxGeometry x="60" y="330" width="100" height="40" as="geometry"/>
                </mxCell>
                <mxCell id="33" value="叫号系统" style="rounded=0;whiteSpace=wrap;html=1;" parent="1" vertex="1">
                    <mxGeometry x="510" y="250" width="100" height="40" as="geometry"/>
                </mxCell>
                <mxCell id="68" style="edgeStyle=none;html=1;exitX=0;exitY=1;exitDx=0;exitDy=0;fontSize=8;startArrow=none;entryX=0.75;entryY=0;entryDx=0;entryDy=0;" edge="1" parent="1" source="70" target="32">
                    <mxGeometry relative="1" as="geometry">
                        <mxPoint x="140" y="289.99999999999994" as="targetPoint"/>
                    </mxGeometry>
                </mxCell>
                <mxCell id="34" value="病人模块" style="ellipse;whiteSpace=wrap;html=1;aspect=fixed;fontSize=7;" parent="1" vertex="1">
                    <mxGeometry x="230" y="185" width="50" height="50" as="geometry"/>
                </mxCell>
                <mxCell id="57" style="edgeStyle=none;html=1;exitX=0.751;exitY=-0.04;exitDx=0;exitDy=0;entryX=0.6;entryY=1;entryDx=0;entryDy=0;entryPerimeter=0;fontSize=8;startArrow=none;exitPerimeter=0;" edge="1" parent="1" source="58" target="36">
                    <mxGeometry relative="1" as="geometry"/>
                </mxCell>
                <mxCell id="35" value="医生模块" style="ellipse;whiteSpace=wrap;html=1;aspect=fixed;fontSize=7;" parent="1" vertex="1">
                    <mxGeometry x="290" y="320" width="50" height="50" as="geometry"/>
                </mxCell>
                <mxCell id="59" style="edgeStyle=none;html=1;exitX=0.5;exitY=0;exitDx=0;exitDy=0;entryX=0.5;entryY=1;entryDx=0;entryDy=0;fontSize=8;startArrow=none;" edge="1" parent="1" source="60" target="31">
                    <mxGeometry relative="1" as="geometry"/>
                </mxCell>
                <mxCell id="64" style="edgeStyle=none;html=1;exitX=0;exitY=1;exitDx=0;exitDy=0;entryX=1;entryY=0;entryDx=0;entryDy=0;fontSize=8;startArrow=none;" edge="1" parent="1" source="65" target="32">
                    <mxGeometry relative="1" as="geometry"/>
                </mxCell>
                <mxCell id="36" value="治疗流程管理模块" style="ellipse;whiteSpace=wrap;html=1;aspect=fixed;fontSize=7;" parent="1" vertex="1">
                    <mxGeometry x="370" y="190" width="50" height="50" as="geometry"/>
                </mxCell>
                <mxCell id="37" value="病人信息，报到信息" style="text;html=1;align=center;verticalAlign=middle;resizable=0;points=[];autosize=1;strokeColor=none;fillColor=none;fontSize=6;" vertex="1" parent="1">
                    <mxGeometry x="150" y="205" width="80" height="20" as="geometry"/>
                </mxCell>
                <mxCell id="38" style="edgeStyle=none;html=1;exitX=0.125;exitY=0.969;exitDx=0;exitDy=0;exitPerimeter=0;entryX=0.035;entryY=0.764;entryDx=0;entryDy=0;entryPerimeter=0;" edge="1" parent="1" source="37" target="34">
                    <mxGeometry relative="1" as="geometry">
                        <mxPoint x="220" y="220" as="targetPoint"/>
                        <mxPoint x="160" y="229.43" as="sourcePoint"/>
                    </mxGeometry>
                </mxCell>
                <mxCell id="42" style="edgeStyle=none;html=1;exitX=1;exitY=0.5;exitDx=0;exitDy=0;entryX=0.031;entryY=0.639;entryDx=0;entryDy=0;entryPerimeter=0;startArrow=none;" edge="1" parent="1" source="43" target="35">
                    <mxGeometry relative="1" as="geometry">
                        <mxPoint x="224.72000000000003" y="310.57" as="targetPoint"/>
                        <mxPoint x="160" y="309.43" as="sourcePoint"/>
                    </mxGeometry>
                </mxCell>
                <mxCell id="44" value="&lt;font style=&quot;font-size: 8px;&quot;&gt;1&lt;/font&gt;" style="text;html=1;align=center;verticalAlign=middle;resizable=0;points=[];autosize=1;strokeColor=none;fillColor=none;" vertex="1" parent="1">
                    <mxGeometry x="230" y="180" width="30" height="30" as="geometry"/>
                </mxCell>
                <mxCell id="45" value="&lt;font style=&quot;font-size: 8px;&quot;&gt;2&lt;/font&gt;" style="text;html=1;align=center;verticalAlign=middle;resizable=0;points=[];autosize=1;strokeColor=none;fillColor=none;" vertex="1" parent="1">
                    <mxGeometry x="300" y="310" width="30" height="30" as="geometry"/>
                </mxCell>
                <mxCell id="46" value="&lt;span style=&quot;font-size: 8px;&quot;&gt;3&lt;/span&gt;" style="text;html=1;align=center;verticalAlign=middle;resizable=0;points=[];autosize=1;strokeColor=none;fillColor=none;" vertex="1" parent="1">
                    <mxGeometry x="380" y="180" width="30" height="30" as="geometry"/>
                </mxCell>
                <mxCell id="48" style="edgeStyle=none;html=1;exitX=1.001;exitY=0.719;exitDx=0;exitDy=0;entryX=0;entryY=0;entryDx=0;entryDy=0;exitPerimeter=0;startArrow=none;" edge="1" parent="1" source="47" target="33">
                    <mxGeometry relative="1" as="geometry">
                        <mxPoint x="350" y="245" as="sourcePoint"/>
                        <mxPoint x="440" y="245" as="targetPoint"/>
                    </mxGeometry>
                </mxCell>
                <mxCell id="50" style="edgeStyle=none;html=1;exitX=0.975;exitY=0.624;exitDx=0;exitDy=0;entryX=0;entryY=0.5;entryDx=0;entryDy=0;exitPerimeter=0;startArrow=none;" edge="1" parent="1" source="56" target="36">
                    <mxGeometry relative="1" as="geometry">
                        <mxPoint x="334.72" y="215.57" as="targetPoint"/>
                        <mxPoint x="270" y="214.43" as="sourcePoint"/>
                    </mxGeometry>
                </mxCell>
                <mxCell id="69" value="" style="edgeStyle=none;html=1;exitX=0.897;exitY=0.012;exitDx=0;exitDy=0;entryX=0;entryY=0.753;entryDx=0;entryDy=0;entryPerimeter=0;fontSize=8;endArrow=none;exitPerimeter=0;" edge="1" parent="1" source="32" target="63">
                    <mxGeometry relative="1" as="geometry">
                        <mxPoint x="135" y="289.99999999999994" as="sourcePoint"/>
                        <mxPoint x="330" y="227.64999999999998" as="targetPoint"/>
                    </mxGeometry>
                </mxCell>
                <mxCell id="63" value="诊疗单" style="text;html=1;align=center;verticalAlign=middle;resizable=0;points=[];autosize=1;strokeColor=none;fillColor=none;fontSize=6;" vertex="1" parent="1">
                    <mxGeometry x="210" y="270" width="40" height="20" as="geometry"/>
                </mxCell>
                <mxCell id="71" value="" style="edgeStyle=none;html=1;exitX=0.124;exitY=0.916;exitDx=0;exitDy=0;fontSize=8;endArrow=none;exitPerimeter=0;" edge="1" parent="1" source="34" target="70">
                    <mxGeometry relative="1" as="geometry">
                        <mxPoint x="140" y="289.99999999999994" as="targetPoint"/>
                        <mxPoint x="227.32233047033628" y="232.67766952966372" as="sourcePoint"/>
                    </mxGeometry>
                </mxCell>
                <mxCell id="70" value="&lt;font style=&quot;font-size: 6px;&quot;&gt;病人信息&lt;/font&gt;" style="text;html=1;align=center;verticalAlign=middle;resizable=0;points=[];autosize=1;strokeColor=none;fillColor=none;fontSize=8;" vertex="1" parent="1">
                    <mxGeometry x="165" y="245" width="50" height="20" as="geometry"/>
                </mxCell>
                <mxCell id="72" value="" style="edgeStyle=none;html=1;exitX=0.5;exitY=0;exitDx=0;exitDy=0;entryX=0.5;entryY=1;entryDx=0;entryDy=0;fontSize=8;endArrow=none;" edge="1" parent="1" source="32" target="60">
                    <mxGeometry relative="1" as="geometry">
                        <mxPoint x="110" y="289.99999999999994" as="sourcePoint"/>
                        <mxPoint x="110" y="250" as="targetPoint"/>
                    </mxGeometry>
                </mxCell>
                <mxCell id="60" value="诊疗单" style="text;html=1;align=center;verticalAlign=middle;resizable=0;points=[];autosize=1;strokeColor=none;fillColor=none;fontSize=6;" vertex="1" parent="1">
                    <mxGeometry x="90" y="280" width="40" height="20" as="geometry"/>
                </mxCell>
                <mxCell id="73" value="" style="edgeStyle=none;html=1;exitX=0;exitY=1;exitDx=0;exitDy=0;entryX=0.753;entryY=0.052;entryDx=0;entryDy=0;entryPerimeter=0;fontSize=8;endArrow=none;" edge="1" parent="1" source="36" target="65">
                    <mxGeometry relative="1" as="geometry">
                        <mxPoint x="337.3223304703363" y="232.67766952966372" as="sourcePoint"/>
                        <mxPoint x="161.43999999999994" y="290.8" as="targetPoint"/>
                    </mxGeometry>
                </mxCell>
                <mxCell id="65" value="&lt;font style=&quot;font-size: 6px;&quot;&gt;诊疗单、排班信息&lt;/font&gt;" style="text;html=1;align=center;verticalAlign=middle;resizable=0;points=[];autosize=1;strokeColor=none;fillColor=none;fontSize=8;" vertex="1" parent="1">
                    <mxGeometry x="240" y="290" width="70" height="20" as="geometry"/>
                </mxCell>
                <mxCell id="75" value="" style="edgeStyle=none;html=1;exitX=1;exitY=0.5;exitDx=0;exitDy=0;endArrow=none;entryX=-0.015;entryY=0.569;entryDx=0;entryDy=0;entryPerimeter=0;" edge="1" parent="1" source="32" target="43">
                    <mxGeometry relative="1" as="geometry">
                        <mxPoint x="180" y="340" as="targetPoint"/>
                        <mxPoint x="160" y="309.43000000000006" as="sourcePoint"/>
                    </mxGeometry>
                </mxCell>
                <mxCell id="43" value="&lt;font style=&quot;font-size: 6px;&quot;&gt;医生信息，报到信息&lt;/font&gt;" style="text;html=1;align=center;verticalAlign=middle;resizable=0;points=[];autosize=1;strokeColor=none;fillColor=none;fontSize=13;" vertex="1" parent="1">
                    <mxGeometry x="180" y="335" width="80" height="30" as="geometry"/>
                </mxCell>
                <mxCell id="77" value="" style="edgeStyle=none;html=1;exitX=1;exitY=0.5;exitDx=0;exitDy=0;entryX=0.4;entryY=1.25;entryDx=0;entryDy=0;entryPerimeter=0;fontSize=8;endArrow=none;" edge="1" parent="1" source="35" target="58">
                    <mxGeometry relative="1" as="geometry">
                        <mxPoint x="339.99999999999966" y="345" as="sourcePoint"/>
                        <mxPoint x="400" y="240" as="targetPoint"/>
                    </mxGeometry>
                </mxCell>
                <mxCell id="58" value="医生信息" style="text;html=1;align=center;verticalAlign=middle;resizable=0;points=[];autosize=1;strokeColor=none;fillColor=none;fontSize=6;" vertex="1" parent="1">
                    <mxGeometry x="340" y="285" width="50" height="20" as="geometry"/>
                </mxCell>
                <mxCell id="78" value="" style="edgeStyle=none;html=1;exitX=0.975;exitY=0.624;exitDx=0;exitDy=0;entryX=0;entryY=0.5;entryDx=0;entryDy=0;exitPerimeter=0;endArrow=none;" edge="1" parent="1" source="34" target="56">
                    <mxGeometry relative="1" as="geometry">
                        <mxPoint x="370.00000000000034" y="215" as="targetPoint"/>
                        <mxPoint x="278.75" y="216.2" as="sourcePoint"/>
                    </mxGeometry>
                </mxCell>
                <mxCell id="56" value="病人信息" style="text;html=1;align=center;verticalAlign=middle;resizable=0;points=[];autosize=1;strokeColor=none;fillColor=none;fontSize=6;" vertex="1" parent="1">
                    <mxGeometry x="290" y="205" width="50" height="20" as="geometry"/>
                </mxCell>
                <mxCell id="79" value="" style="edgeStyle=none;html=1;exitX=1.032;exitY=0.596;exitDx=0;exitDy=0;entryX=-0.056;entryY=0.3;entryDx=0;entryDy=0;exitPerimeter=0;endArrow=none;entryPerimeter=0;" edge="1" parent="1" source="36" target="47">
                    <mxGeometry relative="1" as="geometry">
                        <mxPoint x="421.6" y="219.8" as="sourcePoint"/>
                        <mxPoint x="510" y="250" as="targetPoint"/>
                    </mxGeometry>
                </mxCell>
                <mxCell id="47" value="&lt;span style=&quot;font-size: 7px;&quot;&gt;叫号&lt;/span&gt;" style="text;html=1;align=center;verticalAlign=middle;resizable=0;points=[];autosize=1;strokeColor=none;fillColor=none;fontSize=13;" vertex="1" parent="1">
                    <mxGeometry x="440" y="215" width="40" height="30" as="geometry"/>
                </mxCell>
            </root>
        </mxGraphModel>
    </diagram>
</mxfile>